<?xml version="1.0" encoding="UTF-8"?>
<!DOCTYPE svg PUBLIC "-//W3C//DTD SVG 1.1//EN" "http://www.w3.org/Graphics/SVG/1.1/DTD/svg11.dtd">
<!-- Creator: CorelDRAW 2020 (64 Bit) -->
<svg xmlns="http://www.w3.org/2000/svg" xml:space="preserve" width="350mm" height="62.1731mm" version="1.1" style="shape-rendering:geometricPrecision; text-rendering:geometricPrecision; image-rendering:optimizeQuality; fill-rule:evenodd; clip-rule:evenodd"
viewBox="0 0 24159.58 4291.65"
 xmlns:xlink="http://www.w3.org/1999/xlink"
 xmlns:xodm="http://www.corel.com/coreldraw/odm/2003">
 <defs>
  <style type="text/css">
   <![CDATA[
    .fil0 {fill:black}
    .fil2 {fill:white}
    .fil1 {fill:white}
    .fil3 {fill:black;fill-rule:nonzero}
   ]]>
  </style>
 </defs>
 <g id="Camada_x0020_1">
  <metadata id="CorelCorpID_0Corel-Layer"/>
  <g id="_2474027102208">
   <g>
    <path class="fil0" d="M3981.73 3764.68c58.7,-186.99 141.79,-301.07 147.59,-540.14 7.73,-318.62 -91.72,-369.76 -126.39,-592.47l2020.65 -18.49 11.47 -734.32c3.7,-237.27 -31.26,-456.26 -144.93,-592.93 -159.76,-192.1 -447.11,-225.56 -758.17,-225.67 -1147.87,-0.41 -2294.29,-0.23 -3442.58,-6.31l983.76 -814.32c-549.85,-565.66 -1580.01,-64.05 -1441.57,801.39 -499.26,-70.51 -695.18,-100.65 -1005.65,229.4 -262.9,279.47 -289.01,631.3 -116.38,1011.35l1184 -890.6c189.96,364.46 127.58,596.12 586.02,1246.46 389.24,552.18 686.45,637.4 950.65,881.91l-537.45 485.06c270.86,183.22 515.61,354.71 961.78,259.45 460.08,-98.23 589.52,-387.86 725.76,-498.22 0.49,-0.4 1.11,-1 1.46,-1.56z"/>
    <path class="fil1" d="M3981.73 3764.68l1083.69 8.48c200.93,1.57 379.06,-12.35 491.59,-40.4 354.2,-88.28 460.94,-297.87 462.95,-590.52l3.63 -528.66 -2020.65 18.49c34.68,222.71 134.12,273.84 126.39,592.47 -9.78,241.4 -110.86,366.17 -147.59,540.14z"/>
    <path class="fil2" d="M3942.59 1794.7c145.34,0 263.17,117.83 263.17,263.17 0,145.34 -117.83,263.17 -263.17,263.17 -145.34,0 -263.17,-117.83 -263.17,-263.17 0,-145.34 117.83,-263.17 263.17,-263.17z"/>
   </g>
   <path class="fil3" d="M8379.25 2451.86l0 912.71c0,20.49 -10.24,30.73 -30.73,30.73l-325.74 0c-20.49,0 -30.73,-10.24 -30.73,-30.73l0 -2089.7c0,-20.49 10.24,-30.73 30.73,-30.73l325.74 0c20.49,0 30.73,10.24 30.73,30.73l0 820.51 891.2 0 0 -820.51c0,-20.49 10.24,-30.73 30.73,-30.73l325.75 0c20.49,0 30.73,10.24 30.73,30.73l0 2089.7c0,20.49 -10.24,30.73 -30.73,30.73l-325.75 0c-20.49,0 -30.73,-10.24 -30.73,-30.73l0 -912.71 -891.2 0zm1862.29 -599.25c20.49,0 33.81,10.24 39.95,30.73l368.77 968.02 298.08 -968.02c6.15,-20.49 19.47,-30.73 39.95,-30.73l338.04 0c16.39,0 24.58,7.17 24.58,21.51 0,8.19 -1.02,15.36 -3.07,21.51l-568.52 1650.25c-112.68,325.74 -292.97,488.62 -540.86,488.62 -127.02,0 -226.39,-16.39 -298.09,-49.18 -20.49,-12.29 -30.72,-28.68 -30.72,-49.17l0 -270.43c0,-20.49 8.19,-30.73 24.58,-30.73 12.29,0 46.09,11.27 101.41,33.8 55.32,22.54 103.46,33.81 144.44,33.81 77.85,0 139.83,-26.12 185.92,-78.36 46.1,-52.25 86.56,-139.83 121.38,-262.75l-620.76 -1459.72c-4.1,-12.3 -6.15,-20.49 -6.15,-24.58 0,-16.39 8.2,-24.58 24.58,-24.58l356.48 0zm1296.85 2120.43l0 -2089.7c0,-20.49 10.24,-30.73 30.73,-30.73l307.31 0c20.49,0 30.73,10.24 30.73,30.73l0 95.26c129.07,-104.48 276.58,-156.72 442.53,-156.72 208.96,0 377.99,72.22 507.06,216.65 129.07,144.44 193.6,339.57 193.6,585.42 0,245.84 -64.53,440.99 -193.6,585.42 -129.07,144.44 -298.09,216.65 -507.06,216.65 -165.95,0 -313.45,-51.22 -442.53,-153.66l0 700.67c0,20.49 -10.24,30.73 -30.73,30.73l-307.31 0c-20.49,0 -30.73,-10.24 -30.73,-30.73zm454.82 -1685.59c-69.65,89.12 -104.48,201.29 -104.48,336.51 0,135.21 34.83,247.38 104.48,336.51 69.65,89.12 163.9,133.67 282.72,133.67 118.83,0 213.07,-44.55 282.72,-133.67 69.66,-89.12 104.49,-201.29 104.49,-336.51 0,-135.21 -34.83,-247.38 -104.49,-336.51 -69.65,-89.12 -163.89,-133.68 -282.72,-133.68 -118.82,0 -213.07,44.56 -282.72,133.68zm2083.55 806.68c176.19,0 302.19,-63.51 377.99,-190.53 12.3,-18.44 26.64,-27.66 43.02,-27.66l313.46 0c14.34,0 21.51,7.17 21.51,21.51 0,8.2 -2.05,18.44 -6.15,30.73 -129.07,331.9 -380.04,497.84 -752.91,497.84 -225.36,0 -413.33,-74.78 -563.91,-224.33 -150.58,-149.56 -225.87,-342.14 -225.87,-577.74 0,-233.56 76.82,-425.63 230.48,-576.21 153.65,-150.58 341.11,-225.87 562.37,-225.87 243.8,0 437.4,80.92 580.82,242.77 143.41,161.85 215.11,359.56 215.11,593.11l0 52.24c0,20.49 -10.24,30.73 -30.73,30.73l-1170.85 0c16.39,106.53 60.44,192.07 132.15,256.6 71.7,64.54 162.87,96.8 273.5,96.8zm0 -940.36c-88.09,0 -168,25.1 -239.7,75.29 -71.7,50.2 -122.92,118.31 -153.65,204.36l795.93 0c-61.46,-186.43 -195.65,-279.65 -402.58,-279.65zm1121.69 1210.8l0 -2089.7c0,-20.49 10.24,-30.73 30.72,-30.73l789.79 0c231.5,0 410.77,55.32 537.79,165.95 127.02,110.63 190.54,261.21 190.54,451.74 0,190.54 -63.52,341.12 -190.54,451.75 -127.02,110.63 -306.28,165.95 -537.79,165.95l-433.31 0 0 885.05c0,20.49 -10.24,30.73 -30.73,30.73l-325.75 0c-20.49,0 -30.72,-10.24 -30.72,-30.73zm387.21 -1763.96l0 522.43 448.67 0c96.29,0 173.63,-22.53 232.02,-67.6 58.39,-45.07 87.58,-109.61 87.58,-193.61 0,-83.99 -29.19,-148.53 -87.58,-193.6 -58.39,-45.07 -135.73,-67.61 -232.02,-67.61l-448.67 0zm2793.44 282.73l0 1481.23c0,20.49 -10.24,30.73 -30.73,30.73l-307.31 0c-20.49,0 -30.73,-10.24 -30.73,-30.73l0 -110.63c-139.32,114.73 -294,172.09 -464.04,172.09 -168,0 -299.63,-46.61 -394.89,-139.83 -95.26,-93.22 -142.89,-219.73 -142.89,-379.52l0 -1023.34c0,-20.49 10.24,-30.73 30.73,-30.73l307.31 0c20.49,0 30.73,10.24 30.73,30.73l0 891.2c0,213.07 88.1,319.59 264.29,319.59 106.53,0 194.62,-42.51 264.29,-127.53 69.65,-85.02 104.48,-213.58 104.48,-385.67l0 -697.59c0,-20.49 10.24,-30.73 30.73,-30.73l307.31 0c20.49,0 30.73,10.24 30.73,30.73zm359.56 1481.23l0 -1481.23c0,-20.49 10.24,-30.73 30.73,-30.73l307.31 0c20.49,0 30.73,10.24 30.73,30.73l0 113.7c112.68,-116.78 238.67,-175.17 377.99,-175.17 168,0 296.04,63.51 384.14,190.53 139.31,-127.02 296.04,-190.53 470.18,-190.53 155.7,0 273,47.11 351.87,141.36 78.88,94.24 118.32,227.41 118.32,399.5l0 1001.83c0,20.49 -10.24,30.73 -30.73,30.73l-307.31 0c-20.49,0 -30.73,-10.24 -30.73,-30.73l0 -949.59c0,-98.33 -15.88,-166.46 -47.63,-204.36 -31.75,-37.9 -80.42,-56.86 -145.98,-56.86 -192.58,0 -288.87,175.17 -288.87,525.5l0 685.3c0,20.49 -10.24,30.73 -30.72,30.73l-307.31 0c-20.49,0 -30.73,-10.24 -30.73,-30.73l0 -934.22c0,-102.44 -15.87,-174.15 -47.63,-215.12 -31.75,-40.98 -82.46,-61.46 -152.12,-61.46 -86.05,0 -154.68,43.54 -205.9,130.61 -51.21,87.07 -76.82,218.71 -76.82,394.89l0 685.3c0,20.49 -10.24,30.73 -30.73,30.73l-307.31 0c-20.49,0 -30.73,-10.24 -30.73,-30.73zm2384.72 608.47l0 -2089.7c0,-20.49 10.24,-30.73 30.73,-30.73l307.31 0c20.49,0 30.73,10.24 30.73,30.73l0 95.26c129.07,-104.48 276.58,-156.72 442.53,-156.72 208.96,0 377.99,72.22 507.06,216.65 129.07,144.44 193.6,339.57 193.6,585.42 0,245.84 -64.53,440.99 -193.6,585.42 -129.07,144.44 -298.09,216.65 -507.06,216.65 -165.95,0 -313.45,-51.22 -442.53,-153.66l0 700.67c0,20.49 -10.24,30.73 -30.73,30.73l-307.31 0c-20.49,0 -30.73,-10.24 -30.73,-30.73zm454.82 -1685.59c-69.65,89.12 -104.48,201.29 -104.48,336.51 0,135.21 34.83,247.38 104.48,336.51 69.65,89.12 163.9,133.67 282.72,133.67 118.83,0 213.07,-44.55 282.72,-133.67 69.66,-89.12 104.49,-201.29 104.49,-336.51 0,-135.21 -34.83,-247.38 -104.49,-336.51 -69.65,-89.12 -163.89,-133.68 -282.72,-133.68 -118.82,0 -213.07,44.56 -282.72,133.68zm2581.4 649.96c0,145.46 -60.94,263.26 -182.85,353.41 -121.9,90.14 -279.14,135.21 -471.72,135.21 -194.62,0 -352.89,-49.17 -474.79,-147.51 -121.9,-98.34 -189,-230.48 -201.28,-396.43 0,-20.49 10.24,-30.73 30.73,-30.73l310.38 0c18.44,0 28.68,10.24 30.73,30.73 26.64,141.36 132.14,212.04 316.53,212.04 77.85,0 142.89,-13.31 195.14,-39.95 52.24,-26.64 78.36,-63.52 78.36,-110.63 0,-88.1 -129.07,-153.66 -387.21,-196.68 -358.53,-61.46 -537.79,-209.99 -537.79,-445.6 0,-159.8 60.43,-279.65 181.31,-359.55 120.87,-79.91 264.29,-119.85 430.23,-119.85 184.39,0 334.97,44.56 451.74,133.68 116.78,89.12 181.31,202.31 193.61,339.57 0,20.49 -10.24,30.73 -30.73,30.73l-310.38 0c-20.49,0 -34.84,-10.24 -43.03,-30.73 -47.12,-102.43 -138.29,-153.65 -273.5,-153.65 -65.56,0 -120.36,12.8 -164.41,38.41 -44.05,25.61 -66.07,63 -66.07,112.16 0,43.03 26.12,79.39 78.36,109.1 52.25,29.71 151.09,56.86 296.56,81.44 182.34,30.73 319.59,80.41 411.79,149.04 92.19,68.63 138.29,170.56 138.29,305.77z"/>
  </g>
 </g>
</svg>
