<?xml version="1.0" encoding="UTF-8"?>
<!DOCTYPE svg PUBLIC "-//W3C//DTD SVG 1.1//EN" "http://www.w3.org/Graphics/SVG/1.1/DTD/svg11.dtd">
<!-- Creator: CorelDRAW 2020 (64 Bit) -->
<svg xmlns="http://www.w3.org/2000/svg" xml:space="preserve" width="288.378mm" height="51.2375mm" version="1.1" style="shape-rendering:geometricPrecision; text-rendering:geometricPrecision; image-rendering:optimizeQuality; fill-rule:evenodd; clip-rule:evenodd"
viewBox="0 0 42822.78 7608.53"
 xmlns:xlink="http://www.w3.org/1999/xlink"
 xmlns:xodm="http://www.corel.com/coreldraw/odm/2003">
 <defs>
  <style type="text/css">
   <![CDATA[
    .fil1 {fill:black}
    .fil3 {fill:white}
    .fil2 {fill:white}
    .fil0 {fill:black;fill-rule:nonzero}
   ]]>
  </style>
 </defs>
 <g id="Camada_x0020_1">
  <metadata id="CorelCorpID_0Corel-Layer"/>
  <g id="_2474041430128">
   <path class="fil0" d="M14846.33 4145.29l0 1618.11c0,36.32 -18.16,54.48 -54.48,54.48l-577.5 0c-36.32,0 -54.48,-18.16 -54.48,-54.48l0 -3704.76c0,-36.32 18.16,-54.48 54.48,-54.48l577.5 0c36.32,0 54.48,18.16 54.48,54.48l0 1454.66 1579.97 0 0 -1454.66c0,-36.32 18.16,-54.48 54.48,-54.48l577.51 0c36.32,0 54.48,18.16 54.48,54.48l0 3704.76c0,36.32 -18.16,54.48 -54.48,54.48l-577.51 0c-36.32,0 -54.48,-18.16 -54.48,-54.48l0 -1618.11 -1579.97 0zm3301.6 -1062.39c36.32,0 59.93,18.16 70.83,54.48l653.78 1716.17 528.46 -1716.17c10.9,-36.32 34.51,-54.48 70.83,-54.48l599.3 0c29.06,0 43.58,12.71 43.58,38.13 0,14.52 -1.81,27.23 -5.45,38.13l-1007.91 2925.68c-199.77,577.5 -519.39,866.26 -958.88,866.26 -225.19,0 -401.35,-29.06 -528.48,-87.18 -36.32,-21.78 -54.47,-50.84 -54.47,-87.17l0 -479.43c0,-36.32 14.52,-54.48 43.58,-54.48 21.78,0 81.72,19.97 179.78,59.92 98.07,39.96 183.42,59.93 256.07,59.93 138.03,0 247.9,-46.3 329.61,-138.92 81.73,-92.63 153.46,-247.9 215.2,-465.83l-1100.53 -2587.89c-7.26,-21.8 -10.9,-36.32 -10.9,-43.58 0,-29.06 14.54,-43.58 43.58,-43.58l632 0zm2299.14 3759.25l0 -3704.76c0,-36.32 18.16,-54.48 54.48,-54.48l544.81 0c36.32,0 54.48,18.16 54.48,54.48l0 168.88c228.83,-185.23 490.33,-277.85 784.55,-277.85 370.47,0 670.13,128.03 898.95,384.1 228.83,256.07 343.23,602.01 343.23,1037.88 0,435.85 -114.4,781.81 -343.23,1037.88 -228.82,256.07 -528.48,384.1 -898.95,384.1 -294.21,0 -555.71,-90.8 -784.55,-272.41l0 1242.19c0,36.32 -18.16,54.48 -54.48,54.48l-544.81 0c-36.32,0 -54.48,-18.16 -54.48,-54.48zm806.33 -2988.33c-123.49,158 -185.23,356.86 -185.23,596.58 0,239.72 61.74,438.58 185.23,596.58 123.49,158 290.58,236.98 501.23,236.98 210.67,0 377.74,-78.98 501.23,-236.98 123.5,-158 185.25,-356.86 185.25,-596.58 0,-239.72 -61.74,-438.58 -185.25,-596.58 -123.49,-158 -290.56,-237 -501.23,-237 -210.66,0 -377.74,79 -501.23,237zm3693.86 1430.14c312.36,0 535.74,-112.59 670.13,-337.78 21.8,-32.68 47.22,-49.03 76.27,-49.03l555.73 0c25.42,0 38.13,12.71 38.13,38.13 0,14.54 -3.64,32.7 -10.9,54.48 -228.83,588.41 -673.75,882.61 -1334.81,882.61 -399.53,0 -732.78,-132.58 -999.74,-397.71 -266.95,-265.15 -400.43,-606.57 -400.43,-1024.26 0,-414.06 136.2,-754.58 408.61,-1021.54 272.4,-266.95 604.75,-400.43 997.01,-400.43 432.23,0 775.46,143.46 1029.71,430.4 254.25,286.94 381.37,637.45 381.37,1051.51l0 92.62c0,36.32 -18.16,54.48 -54.48,54.48l-2075.76 0c29.06,188.87 107.15,340.51 234.28,454.92 127.11,114.42 288.75,171.62 484.88,171.62zm0 -1667.14c-156.17,0 -297.84,44.5 -424.96,133.48 -127.11,88.99 -217.92,209.75 -272.4,362.3l1411.08 0c-108.97,-330.52 -346.87,-495.78 -713.71,-495.78zm1988.6 2146.59l0 -3704.76c0,-36.32 18.15,-54.48 54.47,-54.48l1400.19 0c410.43,0 728.24,98.07 953.43,294.2 225.19,196.13 337.8,463.1 337.8,800.88 0,337.8 -112.6,604.76 -337.8,800.89 -225.19,196.13 -543,294.2 -953.43,294.2l-768.2 0 0 1569.08c0,36.32 -18.16,54.48 -54.48,54.48l-577.51 0c-36.32,0 -54.47,-18.16 -54.47,-54.48zm686.46 -3127.27l0 926.19 795.43 0c170.71,0 307.83,-39.95 411.35,-119.85 103.52,-79.91 155.27,-194.32 155.27,-343.25 0,-148.91 -51.75,-263.33 -155.27,-343.23 -103.52,-79.91 -240.64,-119.87 -411.35,-119.87l-795.43 0zm4952.41 501.25l0 2626.02c0,36.32 -18.16,54.48 -54.48,54.48l-544.81 0c-36.32,0 -54.48,-18.16 -54.48,-54.48l0 -196.13c-246.99,203.39 -521.22,305.1 -822.68,305.1 -297.84,0 -531.2,-82.64 -700.1,-247.9 -168.88,-165.26 -253.33,-389.55 -253.33,-672.85l0 -1814.24c0,-36.32 18.16,-54.48 54.48,-54.48l544.81 0c36.32,0 54.48,18.16 54.48,54.48l0 1579.97c0,377.74 156.19,566.6 468.55,566.6 188.87,0 345.04,-75.36 468.55,-226.1 123.49,-150.72 185.23,-378.65 185.23,-683.75l0 -1236.73c0,-36.32 18.16,-54.48 54.48,-54.48l544.81 0c36.32,0 54.48,18.16 54.48,54.48zm637.45 2626.02l0 -2626.02c0,-36.32 18.16,-54.48 54.48,-54.48l544.81 0c36.32,0 54.48,18.16 54.48,54.48l0 201.58c199.77,-207.03 423.14,-310.55 670.13,-310.55 297.84,0 524.84,112.59 681.03,337.78 246.98,-225.19 524.84,-337.78 833.56,-337.78 276.04,0 483.99,83.53 623.81,250.62 139.84,167.07 209.76,403.16 209.76,708.26l0 1776.11c0,36.32 -18.16,54.48 -54.48,54.48l-544.81 0c-36.32,0 -54.48,-18.16 -54.48,-54.48l0 -1683.49c0,-174.33 -28.15,-295.1 -84.45,-362.3 -56.29,-67.19 -142.57,-100.8 -258.8,-100.8 -341.42,0 -512.13,310.55 -512.13,931.64l0 1214.94c0,36.32 -18.16,54.48 -54.47,54.48l-544.83 0c-36.32,0 -54.48,-18.16 -54.48,-54.48l0 -1656.24c0,-181.61 -28.14,-308.74 -84.45,-381.38 -56.29,-72.64 -146.19,-108.97 -269.68,-108.97 -152.55,0 -274.23,77.19 -365.03,231.55 -90.79,154.36 -136.2,387.74 -136.2,700.1l0 1214.94c0,36.32 -18.16,54.48 -54.48,54.48l-544.81 0c-36.32,0 -54.48,-18.16 -54.48,-54.48zm4227.79 1078.74l0 -3704.76c0,-36.32 18.16,-54.48 54.48,-54.48l544.81 0c36.32,0 54.48,18.16 54.48,54.48l0 168.88c228.83,-185.23 490.33,-277.85 784.55,-277.85 370.47,0 670.13,128.03 898.95,384.1 228.83,256.07 343.23,602.01 343.23,1037.88 0,435.85 -114.4,781.81 -343.23,1037.88 -228.82,256.07 -528.48,384.1 -898.95,384.1 -294.21,0 -555.71,-90.8 -784.55,-272.41l0 1242.19c0,36.32 -18.16,54.48 -54.48,54.48l-544.81 0c-36.32,0 -54.48,-18.16 -54.48,-54.48zm806.33 -2988.33c-123.49,158 -185.23,356.86 -185.23,596.58 0,239.72 61.74,438.58 185.23,596.58 123.49,158 290.58,236.98 501.23,236.98 210.67,0 377.74,-78.98 501.23,-236.98 123.5,-158 185.25,-356.86 185.25,-596.58 0,-239.72 -61.74,-438.58 -185.25,-596.58 -123.49,-158 -290.56,-237 -501.23,-237 -210.66,0 -377.74,79 -501.23,237zm4576.48 1152.29c0,257.88 -108.05,466.72 -324.17,626.55 -216.11,159.81 -494.88,239.72 -836.3,239.72 -345.04,0 -625.63,-87.17 -841.75,-261.52 -216.11,-174.35 -335.06,-408.61 -356.85,-702.81 0,-36.32 18.16,-54.48 54.48,-54.48l550.26 0c32.68,0 50.84,18.16 54.48,54.48 47.22,250.62 234.27,375.92 561.16,375.92 138.01,0 253.33,-23.6 345.96,-70.82 92.62,-47.22 138.92,-112.6 138.92,-196.13 0,-156.19 -228.82,-272.41 -686.46,-348.68 -635.62,-108.97 -953.43,-372.29 -953.43,-789.99 0,-283.3 107.14,-495.78 321.43,-637.43 214.29,-141.66 468.55,-212.48 762.75,-212.48 326.9,0 593.86,79 800.88,237 207.03,158 321.45,358.66 343.25,602.01 0,36.32 -18.16,54.48 -54.48,54.48l-550.26 0c-36.32,0 -61.76,-18.16 -76.28,-54.48 -83.54,-181.59 -245.17,-272.4 -484.88,-272.4 -116.23,0 -213.39,22.69 -291.48,68.1 -78.09,45.4 -117.13,111.68 -117.13,198.85 0,76.28 46.3,140.74 138.92,193.42 92.63,52.67 267.87,100.8 525.76,144.38 323.26,54.48 566.6,142.56 730.05,264.23 163.45,121.68 245.17,302.38 245.17,542.1z"/>
   <g>
    <path class="fil1" d="M7238.12 5131.21c-50.3,-144.13 -110.45,-265.88 -141.44,-464.89l3582.34 -32.77 20.33 -1301.86c6.56,-420.64 -55.42,-808.88 -256.94,-1051.18 -283.24,-340.57 -792.67,-399.88 -1344.13,-400.08 -2035.02,-0.73 -4067.48,-0.42 -6103.24,-11.18l1744.08 -1443.69c-974.81,-1002.83 -2801.16,-113.55 -2555.72,1420.76 -885.12,-125 -1232.47,-178.43 -1782.88,406.7 -466.08,495.47 -512.38,1119.21 -206.33,1792.99l2099.07 -1578.92c336.77,646.15 226.19,1056.84 1038.93,2209.8 690.07,978.94 1216.98,1130.03 1685.38,1563.51l-952.83 859.95c480.2,324.82 914.11,628.85 1705.11,459.98 291.12,-62.15 507.53,-167.53 676.5,-286.27 64.46,-47.24 124.35,-95.72 179.87,-145.26l0.4 -0.34 1.86 -1.71 0.43 -0.4c100.5,-92.66 180.82,-186.03 252.13,-267.89 471.23,-599.79 447.24,-1284.9 357.1,-1727.25z"/>
    <path class="fil2" d="M7012.82 6668.33l1967.5 21c356.21,3.79 672.03,-21.9 871.52,-71.62 627.94,-156.51 817.18,-528.08 820.75,-1046.92l6.43 -937.24 -3582.34 32.77c61.48,394.83 205.93,485.45 192.23,1050.32 -25.21,429.94 -106.86,640.31 -276.08,951.69z"/>
    <path class="fil3" d="M6989.69 3181.76c257.67,0 466.56,208.89 466.56,466.56 0,257.67 -208.89,466.56 -466.56,466.56 -257.67,0 -466.56,-208.89 -466.56,-466.56 0,-257.67 208.89,-466.56 466.56,-466.56z"/>
   </g>
  </g>
 </g>
</svg>
